<?xml version="1.0" encoding="UTF-8"?>
<!DOCTYPE svg PUBLIC "-//W3C//DTD SVG 1.1//EN" "http://www.w3.org/Graphics/SVG/1.1/DTD/svg11.dtd">
<!-- Creator: CorelDRAW 2020 (64-Bit) -->
<svg xmlns="http://www.w3.org/2000/svg" xml:space="preserve" width="380px" height="124px" version="1.1" style="shape-rendering:geometricPrecision; text-rendering:geometricPrecision; image-rendering:optimizeQuality; fill-rule:evenodd; clip-rule:evenodd"
viewBox="0 0 1298.14 423.4"
 xmlns:xlink="http://www.w3.org/1999/xlink"
 xmlns:xodm="http://www.corel.com/coreldraw/odm/2003">
 <defs>
  <style type="text/css">
   <![CDATA[
    .str0 {stroke:#373435;stroke-width:8.07;stroke-miterlimit:22.9256}
    .fil2 {fill:none}
    .fil1 {fill:#373435;fill-rule:nonzero}
    .fil0 {fill:#F43E7B;fill-rule:nonzero}
   ]]>
  </style>
 </defs>
 <g id="Capa_x0020_1">
  <metadata id="CorelCorpID_0Corel-Layer"/>
  <path class="fil0" d="M97.13 211.68l-33.9 0 0 -197.93c0,-5.5 3.66,-9.17 9.16,-9.17l8.25 0 0 -3.36 -80.64 0 0 3.36 8.24 0c5.5,0 9.17,3.67 9.17,9.17l0 188.76c0,5.5 -3.67,9.17 -9.17,9.17l-8.24 0 0 3.36 142.34 0 14.66 -45.57 -3.36 -1.22 -0.61 1.83c-6.72,16.86 -31.46,41.6 -55.9,41.6z"/>
  <path id="1" class="fil0" d="M266.04 214.43c-33.9,-0.31 -50.7,-37.58 -50.7,-105.69 0,-68.11 16.8,-105.38 50.7,-105.38 33.91,0 50.7,37.27 50.7,105.38 0,68.11 -16.79,105.69 -50.7,105.69zm0 3.35c66.59,0 99.58,-54.67 99.58,-109.04 0,-54.37 -32.99,-108.74 -99.58,-108.74 -66.59,0 -99.58,54.37 -99.58,108.74 0,54.37 32.99,109.04 99.58,109.04z"/>
  <path id="2" class="fil0" d="M542.16 154.51c0,67.24 -100.79,67.24 -100.79,0l0 -140.76c0,-5.5 3.66,-9.17 9.16,-9.17l8.25 0 0 -3.36 -80.64 0 0 3.36 8.24 0c5.5,0 9.17,3.67 9.17,9.17l0 140.76c0,84.96 149.97,84.96 149.97,0l0 -128.55c0,-8.55 6.72,-21.38 18.33,-21.38l4.28 0 0 -3.36 -49.49 0 0 3.36 5.2 0c11.61,0 18.32,12.83 18.32,21.38l0 128.55z"/>
  <path id="3" class="fil0" d="M700.08 215.04l67.51 0 0 -3.36 -8.25 0c-5.5,0 -12.53,-1.53 -15.27,-9.17l-20.47 -58.64c-5.81,-17.11 -23.52,-23.83 -40.01,-26.27 40.93,-7.08 55.89,-32.17 55.89,-57.32 0,-29.68 -20.77,-59.06 -80.33,-59.06l-78.5 0 0 3.36 8.25 0c5.5,0 9.16,3.67 9.16,9.17l0 188.76c0,5.5 -3.66,9.17 -9.16,9.17l-8.25 0 0 3.36 80.64 0 0 -3.36 -8.25 0c-5.5,0 -9.16,-3.67 -9.16,-9.17l0 -83.08 8.86 0c7.94,0 14.66,2.44 18.02,11.91l29.32 83.7zm-56.2 -98.97l0 -102.32 0 -9.17 11.91 0c23.21,0 34.82,27.85 34.82,55.7 0,26.67 -10.69,53.3 -31.77,55.49 -2.44,0 -4.27,0.3 -6.1,0.3l-8.86 0z"/>
  <path id="4" class="fil0" d="M794.46 202.51c0,5.5 -3.66,9.17 -9.16,9.17l-8.24 0 0 3.36 48.87 0 44.9 0c60.17,0 89.8,-53.51 89.8,-106.76 0,-53.55 -29.63,-107.06 -89.8,-107.06l-93.77 0 0 3.36 8.24 0c5.5,0 9.16,3.67 9.16,9.17l0 188.76zm45.82 9.17l0 -207.1 18.02 0c35.74,0 53.46,45.57 53.46,103.7 0,57.83 -17.72,103.4 -53.46,103.4l-18.02 0z"/>
  <path id="5" class="fil0" d="M990.56 202.51c0,5.5 -3.66,9.17 -9.16,9.17l-8.25 0 0 3.36 25.35 0 116.99 0 14.66 -45.51 -3.36 -1.23 -0.61 1.84c-6.72,16.8 -31.46,41.54 -55.9,41.54l-33.9 0 0 -124.37 34.51 0c8.55,0 21.39,6.77 21.39,18.38l0 4.27 3.36 0 0 -49.63 -3.36 0 0 5.24c0,11.66 -12.84,18.38 -21.39,18.38l-34.51 0 0 -79.37 27.79 0c24.44,0 46.12,18.64 52.85,35.54l0.61 1.52 3.36 -1.22 -11.61 -39.2 -136.23 0 0 3.36 8.25 0c5.5,0 9.16,3.67 9.16,9.17l0 188.76z"/>
  <path id="6" class="fil0" d="M1260.27 70.26c13.44,0 24.74,-11.31 24.74,-25.05 0,-29.63 -41.54,-45.21 -68.73,-45.21 -36.96,0 -73.3,20.77 -73.3,55.9 0,68.73 116.07,59.56 116.07,114.54 0,28.1 -25.66,40.63 -51.93,40.63 -20.16,0 -40.62,-7.03 -51.01,-20.16 3.36,1.83 7.33,2.75 11.3,2.75 13.44,0 24.75,-11.31 24.75,-24.75 0,-13.74 -11.31,-24.74 -25.05,-24.74 -13.44,0 -24.44,11 -24.44,24.74 0,32.99 43.99,48.87 70.87,48.87 41.23,0 84.6,-23.52 84.6,-66.28 0,-73.61 -116.98,-63.53 -116.98,-113.62 0,-22.3 19.24,-32.69 40.93,-32.69 18.94,0 33.6,5.81 45.82,16.8 -2.45,-0.91 -4.89,-1.52 -7.95,-1.52 -13.43,0 -24.43,11.3 -24.43,25.04 0,13.44 11,24.75 24.74,24.75z"/>
  <path class="fil1" d="M589.54 392.5c13.74,-12.12 25.5,-22.65 35.38,-31.67 9.82,-9.01 17.56,-16.08 23.16,-21.27 5.65,-5.15 10.59,-9.52 14.86,-13.09 4.28,-3.61 7.03,-5.39 8.2,-5.39 2.29,-0.11 4.48,2.24 6.57,7.07 2.09,4.84 3.16,8.71 3.16,11.56 0,1.88 -3.16,6.36 -9.47,13.39 -6.37,6.97 -11.1,12.57 -14.21,16.75 -3.15,4.17 -4.73,8.55 -4.73,13.13 0,2.7 0.91,4.84 2.7,6.47 1.78,1.67 3.92,2.49 6.41,2.49 2.9,0 6.37,-1.53 10.39,-4.48 4.02,-3 10.38,-8.35 19.03,-15.99l0 10.6c-8.65,8.14 -16.54,15.22 -23.62,21.12 -7.02,5.96 -13.18,10.38 -18.42,13.34 -5.25,2.9 -9.57,4.38 -13.09,4.38 -3.05,0 -5.65,-1.17 -7.74,-3.51 -2.08,-2.35 -3.15,-5.25 -3.15,-8.71 0,-3.41 0.61,-6.82 1.78,-10.34 1.22,-3.46 3.06,-7.58 5.55,-12.37 2.49,-4.78 5.75,-10.54 9.88,-17.25 4.07,-6.72 7.78,-12.88 11.19,-18.43 -10.12,8.25 -19.13,16.19 -26.97,23.87 -7.9,7.69 -14.31,14.36 -19.25,20.11 -4.99,5.7 -8.91,10.24 -11.81,13.49 -5.55,6.16 -10.69,9.27 -15.47,9.27 -5.15,0 -7.74,-3.67 -7.74,-11.05 0,-3 1.93,-8.35 5.8,-16.08 3.87,-7.69 9.37,-17.52 16.49,-29.48 0.62,-0.81 0.92,-2.04 0.92,-3.72 0,-1.98 -0.97,-3 -2.95,-3 -2.19,0 -5.4,2.08 -9.52,6.21 -4.13,4.12 -12.07,12.78 -23.93,25.91 -3.26,3.67 -6.97,8.5 -11.09,14.41 -4.13,5.9 -7.08,9.87 -8.86,11.86 -1.83,1.99 -3.61,3 -5.4,3 -3.56,0 -6.92,-3.2 -9.98,-9.57 -3.1,-6.36 -4.63,-13.79 -4.63,-22.25 0,-6.15 1.02,-11.5 3.06,-15.98 2.03,-4.48 5.19,-10.03 9.52,-16.7 6.67,-9.67 12.11,-16.54 16.34,-20.67 4.22,-4.12 8.65,-6.16 13.33,-6.16 2.9,0 5.35,0.56 7.33,1.69 1.99,1.17 2.96,2.74 2.96,4.73 0,2.09 -1.79,5.5 -5.45,10.28 -3.62,4.74 -8.2,9.68 -13.8,14.72 -2.94,2.9 -5.8,6.46 -8.5,10.68 -2.69,4.23 -4.02,7.29 -4.02,9.17 0,2.7 1.07,4.02 3.16,4.02 1.68,0 5.96,-3.46 12.77,-10.43 6.88,-6.98 14.41,-14.51 22.61,-22.71 8.19,-8.2 15.78,-15.02 22.8,-20.42 6.98,-5.44 12.93,-8.14 17.77,-8.14 3,0 5.45,1.12 7.38,3.36 1.94,2.24 2.9,4.99 2.9,8.25 0,2.19 -1.47,6.16 -4.48,11.86 -2.95,5.75 -7.28,12.78 -13.03,21.18 -5.7,8.39 -13.03,18.58 -22.09,30.49z"/>
  <path id="1" class="fil1" d="M785.78 371.78l0 9.98c-6.56,5.95 -11.81,9.93 -15.78,11.96 -3.97,1.99 -9.67,2.75 -17.15,2.34 -12.88,15.33 -24.29,23.01 -34.11,23.01 -5.6,0 -10.64,-1.83 -15.22,-5.5 -4.58,-3.71 -8.25,-8.7 -10.95,-15.06 -2.75,-6.36 -4.12,-13.49 -4.12,-21.33 0,-6.37 2.08,-13.44 6.31,-21.18 4.23,-7.74 9.72,-14.97 16.45,-21.69 6.67,-6.72 13.84,-12.11 21.53,-16.24 7.63,-4.12 14.76,-6.21 21.28,-6.21 4.68,0 8.35,0.72 11.04,2.14 2.7,1.48 4.03,3.46 4.03,6.06 0,1.98 -1.12,4.27 -3.41,6.87 3.76,0.77 6.36,2.09 7.74,3.92 1.37,1.83 2.08,5.19 2.08,10.08 0,4.79 -1.12,10.79 -3.36,18.02 -2.24,7.28 -5.29,14.05 -9.16,20.42l2.7 2.7 2.24 0c1.68,0 3.36,-0.46 4.98,-1.28 1.63,-0.86 3.11,-1.73 4.38,-2.7 1.33,-0.91 4.13,-3.05 8.5,-6.31zm-30.69 -39.15c-8.25,4.94 -15.28,9.47 -21.18,13.49 -5.85,4.03 -10.79,8.1 -14.92,12.22 -4.07,4.12 -6.77,8.25 -8.19,12.42 -2.5,11.1 -3.72,17.11 -3.72,18.02 0,6.57 4.58,9.83 13.75,9.83 4.27,0 11.4,-3.66 21.48,-11 -1.68,-4.68 -2.55,-9.16 -2.55,-13.44 0,-6.26 1.28,-12.62 3.87,-19.14 2.6,-6.51 6.42,-13.95 11.46,-22.4z"/>
  <path id="2" class="fil1" d="M856.85 370.4l0 11.05c-20.82,27.54 -37.72,41.29 -50.76,41.29 -7.02,0 -12.57,-3.87 -16.59,-11.56 -4.02,-7.68 -6.06,-17.82 -6.06,-30.34 0,-10.13 2.4,-22.19 7.18,-36.14 4.73,-14 11.15,-28.15 19.14,-42.51 7.99,-14.36 16.29,-26.88 24.89,-37.57 8.61,-10.69 16.6,-18.18 23.98,-22.45 2.96,-1.78 5.3,-2.7 6.98,-2.7 2.09,0 3.46,0.92 4.17,2.75 0.66,1.83 1.02,4.99 1.02,9.47 0,13.85 -5.6,30.8 -16.85,50.96 -11.25,20.11 -26.93,40.67 -47.04,61.65 -0.97,5.19 -1.48,9.16 -1.48,11.91 0,6.36 1.38,11.56 4.13,15.53 2.74,3.97 6.51,5.95 11.4,5.95 2.5,0 5.19,-0.97 8.09,-2.9 2.91,-1.93 5.91,-4.38 9.12,-7.23 3.15,-2.9 9.42,-8.6 18.68,-17.16zm-44.69 -26.77c5.19,-5.09 10.18,-10.85 15.01,-17.31 4.84,-6.46 9.42,-13.34 13.69,-20.72 4.28,-7.33 7.64,-13.95 10.09,-19.8 2.44,-5.86 3.66,-10.28 3.66,-13.29 0,-2.29 -0.81,-3.41 -2.39,-3.41 -0.61,0 -1.73,0.56 -3.41,1.63 -6.11,4.99 -12.93,14.66 -20.52,29.12 -7.58,14.46 -12.93,29.07 -16.13,43.78z"/>
  <path id="3" class="fil1" d="M916.67 305.45c-2.5,0 -4.84,-0.97 -7.08,-2.85 -2.23,-1.89 -3.36,-4.28 -3.36,-7.13 0,-4.38 2.09,-9.27 6.27,-14.66 4.17,-5.35 8.5,-8.05 12.93,-8.05 3,0 5.49,0.92 7.48,2.76 1.98,1.83 2.95,4.52 2.95,7.99 0,4.27 -2.04,9.01 -6.11,14.2 -4.07,5.14 -8.45,7.74 -13.08,7.74zm10.13 66.64l0 10.89c-9.67,12.42 -18.68,21.84 -27.03,28.15 -8.35,6.31 -15.43,9.47 -21.28,9.47 -8.2,0 -14.26,-4.27 -18.23,-12.83 -3.97,-8.55 -5.95,-17.92 -5.95,-28.05 0,-3.87 0.41,-7.58 1.17,-11.09 0.81,-3.57 1.78,-6.47 2.85,-8.76 1.12,-2.29 3.16,-5.85 6.16,-10.75 14.1,-21.99 27.03,-32.98 38.74,-32.98 6.06,0 9.11,2.34 9.11,7.02 0,3.16 -1.98,8.15 -5.9,14.92 -3.92,6.77 -7.44,11.61 -10.49,14.51 -8.65,8.35 -14.31,14.15 -16.9,17.41 -2.65,3.31 -3.97,7.02 -3.97,11.2 0,3.56 1.32,6.57 4.02,8.96 2.7,2.39 6.16,3.56 10.44,3.56 4.68,0 9.82,-1.73 15.42,-5.14 5.6,-3.41 12.88,-8.91 21.84,-16.49z"/>
  <path id="4" class="fil1" d="M1025.97 345.11c-17.51,19.49 -26.27,33.09 -26.27,40.72 0,4.28 1.73,6.42 5.24,6.42 2.86,0 6.62,-1.53 11.26,-4.59 4.63,-3 11.86,-8.39 21.68,-16.13l0 10.23c-14.1,13.95 -24.94,24.03 -32.48,30.19 -7.58,6.16 -13.74,9.26 -18.52,9.26 -8.15,0 -12.23,-5.39 -12.23,-16.14 0,-3.15 0.52,-6.31 1.48,-9.36 1.02,-3.11 2.39,-6.32 4.12,-9.63 1.73,-3.35 4.38,-8.09 8,-14.3 3.56,-6.26 7.68,-13.29 12.37,-21.13 -5.65,2.91 -12.78,8.61 -21.33,17.11 -5.6,5.4 -10.29,10.48 -14.2,15.32 -3.87,4.84 -8,10.18 -12.43,16.09 -4.43,5.96 -7.68,9.93 -9.72,11.96 -2.03,2.04 -4.07,3.06 -6.16,3.06 -3.21,0 -6.11,-3.31 -8.81,-9.98 -2.7,-6.67 -4.02,-14.46 -4.02,-23.32 0,-5.45 0.61,-9.72 1.88,-12.83 1.23,-3.05 3.67,-7.43 7.38,-13.13 6.83,-10.54 12.78,-18.28 17.72,-23.21 4.99,-4.89 9.77,-7.39 14.31,-7.39 3.2,0 5.75,0.57 7.68,1.63 1.94,1.12 2.91,2.8 2.91,5.09 0,1.02 -0.26,2.04 -0.87,3.16 -0.61,1.12 -1.27,2.09 -2.04,3 -0.71,0.87 -2.29,2.65 -4.68,5.2 -15.68,17.41 -23.52,28.71 -23.52,33.85 0,2.9 0.97,4.33 2.85,4.33 1.18,0 3.46,-1.94 6.92,-5.75 3.42,-3.82 7.84,-8.86 13.24,-15.08 5.45,-6.2 11.86,-12.67 19.25,-19.44 7.43,-6.77 15.83,-13.29 25.25,-19.55 5.29,-3.71 9.67,-5.55 13.13,-5.55 1.63,0 3.16,2.19 4.73,6.57 1.53,4.38 2.29,8.81 2.29,13.34 0,2.18 -2.13,5.49 -6.41,9.98z"/>
  <path id="5" class="fil1" d="M1054.43 345.41c15.12,-13.74 29.78,-23.92 44.03,-30.59 14.2,-6.67 25.2,-9.98 32.94,-9.98 2.09,0 4.02,0.86 5.85,2.59 1.79,1.73 3.21,3.77 4.23,6.06 1.07,2.29 1.57,3.97 1.57,5.09 0,1.78 -0.71,3.11 -2.08,3.92 -1.37,0.87 -3.82,1.89 -7.33,3.06 0.71,1.63 1.63,3.66 2.7,6.16 1.12,2.44 1.93,4.48 2.54,6 0.61,1.58 0.87,2.9 0.87,4.13 0,2.39 -2.4,6.82 -7.23,13.34 -4.79,6.51 -8.2,11.3 -10.13,14.4 -1.94,3.11 -2.9,6.88 -2.9,11.35 0,7.34 3.36,11.05 10.13,11.05 6.97,0 17.86,-6.51 32.68,-19.55l0 9.07c-25.15,27.94 -43.17,41.89 -54.01,41.89 -3.92,0 -6.67,-1.27 -8.35,-3.82 -1.63,-2.54 -2.45,-6.26 -2.45,-11.25 0,-7.84 2.85,-19.19 8.56,-34.1 -14.56,16.08 -25.31,27.53 -32.38,34.36 -7.08,6.77 -12.88,10.18 -17.46,10.18 -2.19,0 -4.89,-1.89 -8.2,-5.65 -3.26,-3.82 -6.16,-8.71 -8.71,-14.71 -2.54,-6.01 -3.81,-12.27 -3.81,-18.69 0,-4.68 0.46,-8.6 1.32,-11.71 0.92,-3.15 2.65,-6.36 5.25,-9.62 2.59,-3.31 6.71,-7.64 12.37,-12.98zm71.47 -16.44c-25.86,11.86 -44.29,21.89 -55.28,30.13 -11,8.3 -16.5,16.8 -16.5,25.56 0,3.16 0.56,5.8 1.63,7.84 1.12,2.04 2.6,3.05 4.48,3.05 1.12,0 3.05,-0.71 5.8,-2.08 10.44,-6.16 20.01,-14.2 28.66,-24.13 8.66,-9.88 19.1,-23.37 31.21,-40.37z"/>
  <path class="fil2 str0" d="M138.74 347.17c134.14,0 267.82,2.67 400.63,2.67 -0.39,-4.91 21.37,-42.17 21.37,-10.69"/>
 </g>
</svg>
